<?xml version="1.0" encoding="iso-8859-1"?>
<!-- Generator: Adobe Illustrator 19.0.0, SVG Export Plug-In . SVG Version: 6.00 Build 0)  -->
<svg version="1.1" id="Layer_1" xmlns="http://www.w3.org/2000/svg" xmlns:xlink="http://www.w3.org/1999/xlink" x="0px" y="0px"
	 viewBox="0 0 330 330" style="enable-background:new 0 0 330 330;" xml:space="preserve">
<g id="XMLID_449_">
	<path id="XMLID_450_" d="M235,105h-55V50c0-8.284-6.716-15-15-15c-8.284,0-15,6.716-15,15v55H95c-52.383,0-95,42.617-95,95
		s42.617,95,95,95c21.181,0,41.659-7.065,58.284-20h23.433c16.624,12.935,37.102,20,58.284,20c52.383,0,95-42.617,95-95
		S287.383,105,235,105z M235,265c-15.832,0-31.089-5.77-42.96-16.247c-2.741-2.418-6.27-3.753-9.925-3.753h-34.229
		c-3.655,0-7.185,1.335-9.925,3.753C126.089,259.23,110.832,265,95,265c-35.841,0-65-29.159-65-65s29.159-65,65-65h140
		c35.841,0,65,29.159,65,65S270.841,265,235,265z"/>
	<path id="XMLID_453_" d="M115,185h-5v-5c0-8.284-6.716-15-15-15c-8.284,0-15,6.716-15,15v5h-5c-8.284,0-15,6.716-15,15
		s6.716,15,15,15h5v5c0,8.284,6.716,15,15,15c8.284,0,15-6.716,15-15v-5h5c8.284,0,15-6.716,15-15S123.284,185,115,185z"/>
	<path id="XMLID_454_" d="M238.535,175.252l-28.214,28.214c-0.023,0.022-0.049,0.042-0.071,0.064
		c-0.356,0.356-0.69,0.731-1.006,1.12c-4.605,5.619-4.499,13.792,0.292,19.308c0.232,0.269,0.462,0.54,0.714,0.792
		c0.352,0.352,0.722,0.685,1.106,0.998c2.755,2.262,6.128,3.395,9.501,3.395c3.37,0,6.738-1.13,9.492-3.387
		c0.389-0.316,0.764-0.65,1.12-1.006c0.022-0.023,0.041-0.047,0.063-0.069l28.216-28.216c5.858-5.857,5.858-15.355,0-21.213
		C253.891,169.395,244.393,169.395,238.535,175.252z"/>
</g>
<g>
</g>
<g>
</g>
<g>
</g>
<g>
</g>
<g>
</g>
<g>
</g>
<g>
</g>
<g>
</g>
<g>
</g>
<g>
</g>
<g>
</g>
<g>
</g>
<g>
</g>
<g>
</g>
<g>
</g>
</svg>
